<?xml version="1.0" standalone="no"?>
<!DOCTYPE svg PUBLIC "-//W3C//DTD SVG 20010904//EN"
 "http://www.w3.org/TR/2001/REC-SVG-20010904/DTD/svg10.dtd">
<svg version="1.0" xmlns="http://www.w3.org/2000/svg"
 width="50.000000pt" height="50.000000pt" viewBox="0 0 260.000000 300.000000"
 preserveAspectRatio="xMidYMid meet">

<g transform="translate(0.000000,300.000000) scale(0.100000,-0.100000)"
fill="#000000" stroke="none">
<path d="M1136 2662 c-28 -7 -88 -30 -132 -51 -45 -21 -95 -42 -112 -46 -17
-3 -36 -13 -43 -21 -7 -9 -45 -31 -85 -50 -72 -34 -141 -93 -218 -187 -21 -26
-43 -47 -50 -47 -6 0 -19 -17 -29 -38 -9 -20 -24 -48 -33 -62 -10 -17 -13 -40
-10 -71 4 -43 2 -47 -50 -104 -43 -48 -54 -66 -54 -93 0 -19 -9 -47 -21 -63
-17 -24 -18 -29 -5 -29 26 0 37 -38 38 -128 0 -58 5 -94 15 -109 8 -13 13 -40
12 -65 -1 -24 3 -53 9 -65 7 -12 12 -31 12 -43 0 -23 44 -115 60 -125 5 -3 10
-19 10 -34 0 -15 9 -36 20 -46 11 -10 20 -26 20 -36 0 -11 10 -21 25 -25 19
-5 25 -13 25 -34 0 -22 8 -33 37 -51 21 -12 39 -23 41 -24 1 -1 -8 -26 -22
-56 -28 -64 -46 -145 -45 -197 1 -31 3 -28 10 18 15 104 80 243 102 221 14
-14 67 -15 67 -1 0 6 11 10 25 10 14 0 37 7 50 16 18 12 35 14 65 9 29 -5 47
-3 65 9 23 15 67 18 178 14 43 -2 51 1 82 32 110 113 109 113 258 39 67 -34
125 -66 128 -72 4 -5 13 -37 20 -71 6 -33 23 -96 35 -140 21 -69 23 -91 17
-182 -6 -101 -5 -104 15 -104 28 0 34 47 30 208 l-3 122 32 11 c17 5 37 16 43
24 6 7 28 16 49 20 22 3 49 17 61 30 13 14 27 22 31 19 4 -2 13 5 19 16 6 12
21 20 36 20 34 0 94 47 111 87 7 18 24 40 37 48 14 9 29 30 35 47 6 17 20 37
30 45 11 7 27 38 36 69 9 30 25 69 35 87 11 18 20 47 20 64 0 18 7 51 16 73
11 28 15 55 11 85 -5 30 0 61 14 104 19 56 20 69 9 147 -7 59 -24 116 -51 179
-21 51 -39 98 -39 104 0 16 -37 88 -71 138 -16 23 -48 54 -71 70 -27 18 -46
40 -53 63 -9 27 -19 37 -45 44 -19 6 -50 26 -70 46 -28 28 -48 38 -85 43 -26
4 -53 13 -59 21 -6 8 -31 20 -56 26 -25 7 -72 21 -104 32 -49 16 -90 20 -245
21 -122 1 -202 -2 -235 -11z m554 -847 c31 -32 34 -40 38 -115 l5 -82 -37 -30
c-30 -24 -36 -36 -36 -66 1 -20 7 -48 15 -62 34 -60 1 -103 -103 -134 -34 -11
-62 -23 -62 -28 0 -4 16 -25 35 -47 41 -45 42 -52 15 -76 -27 -24 -72 -21
-123 8 -76 45 -95 73 -102 152 -9 93 -9 92 5 155 6 30 14 75 17 100 4 29 14
53 32 71 96 100 119 121 141 133 85 46 105 56 115 56 6 0 26 -16 45 -35z m18
-292 c-2 -9 -8 -18 -15 -20 -7 -3 -9 3 -6 16 6 25 26 28 21 4z m-112 -248 c15
-11 16 -14 3 -15 -8 0 -24 7 -35 15 -15 11 -16 14 -3 15 8 0 24 -7 35 -15z"/>
<path d="M1529 1660 c24 -5 55 -19 68 -31 29 -28 44 -16 16 13 -15 15 -37 22
-75 24 l-53 3 44 -9z"/>
<path d="M1508 1571 c-11 -4 -14 -11 -9 -19 8 -13 41 -6 41 8 0 14 -13 18 -32
11z"/>
<path d="M1608 1383 c7 -3 16 -2 19 1 4 3 -2 6 -13 5 -11 0 -14 -3 -6 -6z"/>
<path d="M761 782 c-18 -53 -27 -222 -12 -222 7 0 11 29 11 88 0 48 5 104 11
125 14 51 6 58 -10 9z"/>
<path d="M1963 728 c-4 -7 -22 -21 -40 -31 -24 -13 -32 -14 -36 -5 -5 13 -11
-25 -8 -50 1 -8 -4 -21 -11 -30 -11 -15 -11 -15 4 -4 13 10 17 10 21 0 3 -7 3
5 0 27 -3 22 -2 37 3 33 4 -5 13 1 21 12 8 11 20 20 27 20 16 0 41 28 33 36
-3 3 -9 0 -14 -8z"/>
<path d="M1304 671 c-38 -23 -40 -26 -49 -74 l-7 -37 80 0 81 0 -15 42 c-16
47 -41 88 -52 88 -4 0 -21 -9 -38 -19z"/>
</g>
</svg>
